<svg xmlns="http://www.w3.org/2000/svg" width="48" height="48" viewBox="0 0 48 48">
    <g fill="none" fill-rule="evenodd">
        <circle cx="24" cy="24" r="23" stroke="#FFF" stroke-width="2"/>
        <path fill="#FFF" fill-rule="nonzero" d="M24.615 12c2.702.002 3.138.018 4.334.073 4.362.2 6.783 2.626 6.979 6.98.052 1.152.069 1.598.072 4.051v1.792c-.003 2.454-.02 2.9-.073 4.052-.197 4.362-2.625 6.78-6.979 6.98-1.152.052-1.598.069-4.052.072h-1.792c-2.453-.003-2.9-.02-4.052-.072-4.362-.2-6.78-2.622-6.98-6.98-.054-1.195-.07-1.63-.072-4.333v-1.23c.002-2.702.018-3.137.073-4.333.2-4.362 2.622-6.78 6.98-6.98 1.195-.054 1.63-.07 4.332-.072zM24 17.838c-3.403 0-6.162 2.759-6.162 6.162s2.759 6.163 6.162 6.163 6.162-2.759 6.162-6.163c0-3.403-2.759-6.162-6.162-6.162zM24 20c2.209 0 4 1.791 4 4 0 2.21-1.791 4-4 4s-4-1.79-4-4c0-2.209 1.791-4 4-4zm6.406-3.845c-.796 0-1.441.645-1.441 1.44 0 .795.645 1.44 1.441 1.44.795 0 1.439-.645 1.439-1.44 0-.795-.644-1.44-1.439-1.44z"/>
    </g>
</svg>
