<svg xmlns="http://www.w3.org/2000/svg" width="350" height="350" viewBox="0 0 350 350">
    <defs>
        <filter id="prefix__a" width="118.6%" height="118.6%" x="-9.3%" y="-9.3%" filterUnits="objectBoundingBox">
            <feOffset dy="8" in="SourceAlpha" result="shadowOffsetOuter1"/>
            <feGaussianBlur in="shadowOffsetOuter1" result="shadowBlurOuter1" stdDeviation="4"/>
            <feColorMatrix in="shadowBlurOuter1" result="shadowMatrixOuter1" values="0 0 0 0 0.137254902 0 0 0 0 0.141176471 0 0 0 0 0.141176471 0 0 0 0.2 0"/>
            <feMerge>
                <feMergeNode in="shadowMatrixOuter1"/>
                <feMergeNode in="SourceGraphic"/>
            </feMerge>
        </filter>
    </defs>
    <g fill="none" fill-rule="evenodd" filter="url(#prefix__a)" transform="translate(8)">
        <g fill="#232424" transform="translate(11 8)">
            <ellipse cx="156.256" cy="14.179" rx="14.205" ry="14.179"/>
            <ellipse cx="258.533" cy="59.553" rx="14.205" ry="14.179"/>
            <ellipse cx="301.149" cy="161.644" rx="14.205" ry="14.179"/>
            <ellipse cx="255.692" cy="256.032" rx="14.205" ry="14.179"/>
            <ellipse cx="151.995" cy="297.766" rx="14.205" ry="14.179"/>
            <ellipse cx="50.933" cy="256.032" rx="14.205" ry="14.179"/>
            <ellipse cx="14.205" cy="158.809" rx="14.205" ry="14.179"/>
            <ellipse cx="48.297" cy="56.717" rx="14.205" ry="14.179"/>
        </g>
        <path fill="#E59800" fill-rule="nonzero" d="M167 0C74.733 0 0 74.811 0 167s74.811 167 167 167c92.267 0 167-74.811 167-167S259.189 0 167 0zM22.989 174.603c-4.364 0-7.87-3.507-7.87-7.87 0-4.364 3.506-7.871 7.87-7.871 4.364 0 7.87 3.507 7.87 7.87 0 4.364-3.506 7.871-7.87 7.871zm238.07-114.32c3.04-3.04 8.027-3.04 11.066 0 3.04 3.039 3.04 8.026 0 11.065-3.04 3.04-8.027 3.04-11.066 0-3.039-3.039-3.039-8.026 0-11.065zm-95.384-44.108c4.364 0 7.871 3.507 7.871 7.871 0 4.364-3.507 7.87-7.87 7.87-4.365 0-7.872-3.506-7.872-7.87.078-4.364 3.585-7.87 7.871-7.87zM59.225 60.283c3.04-3.04 8.027-3.04 11.066 0 3.04 3.039 3.04 8.026 0 11.065-3.039 3.04-8.026 3.04-11.066 0-3.039-3.039-3.039-8.026 0-11.065zm11.144 212.9c-3.04 3.039-8.026 3.039-11.066 0-3.039-3.04-3.039-8.027 0-11.066 3.04-3.04 8.027-3.04 11.066 0 3.04 3.039 3.04 8.026 0 11.065zm95.306 44.107c-4.364 0-7.87-3.507-7.87-7.871 0-4.364 3.506-7.87 7.87-7.87 4.364 0 7.871 3.506 7.871 7.87 0 4.364-3.507 7.87-7.87 7.87zm106.528-44.108c-3.04 3.04-8.027 3.04-11.066 0-3.039-3.039-3.039-8.026 0-11.065 3.04-3.04 8.027-3.04 11.066 0 3.04 3.039 3.04 8.026 0 11.065zM167 282.144c-62.966 0-114.009-51.043-114.009-114.009S104.034 54.126 167 54.126s114.009 51.043 114.009 114.01C280.93 231.178 229.888 282.143 167 282.143zM311.479 158.94c4.364 0 7.87 3.506 7.87 7.87 0 4.364-3.506 7.871-7.87 7.871-4.364 0-7.871-3.507-7.871-7.87 0-4.365 3.507-7.871 7.87-7.871z"/>
        <circle cx="167.5" cy="167.5" r="115.5" fill="#FFF"/>
    </g>
</svg>
