<svg xmlns="http://www.w3.org/2000/svg" width="720" height="114" viewBox="0 0 720 114">
    <defs>
        <filter id="prefix__a" width="108.8%" height="115.3%" x="-4.4%" y="-7.7%" filterUnits="objectBoundingBox">
            <feOffset dy="8" in="SourceAlpha" result="shadowOffsetOuter1"/>
            <feGaussianBlur in="shadowOffsetOuter1" result="shadowBlurOuter1" stdDeviation="4"/>
            <feColorMatrix in="shadowBlurOuter1" result="shadowMatrixOuter1" values="0 0 0 0 0.137254902 0 0 0 0 0.141176471 0 0 0 0 0.141176471 0 0 0 0.2 0"/>
            <feMerge>
                <feMergeNode in="shadowMatrixOuter1"/>
                <feMergeNode in="SourceGraphic"/>
            </feMerge>
        </filter>
    </defs>
    <g fill="none" fill-rule="evenodd" filter="url(#prefix__a)" transform="translate(8)">
        <g>
            <path fill="#000" d="M82.65 38.711c.499-.008 13.836-1.11 13.836-1.11s10.653-20.093 10.828-24.323c0 0 .839-4.394-7.079-8.2-7.913-3.81-19.107-4.25-19.107-4.25l-3.166 9.56L75.938 0s-33.37 1.099-49.8 6.477L25.08 21.895 20.99 8.064S.56 13.802.116 25.964c0 0 .125 7.022 6.54 11.005 6.418 3.982 76.137 9.594 76.137 9.594l-.142-7.852"/>
            <path fill="#FFEDC1" d="M106.557 10.81c.408 3.143-.47 10.843-17.552 13.964-.44 3.577-1.648 11.392-1.801 10.893-1.035-3.376-1.364-6.895-2.36-10.268-1.877.227-3.896.41-6.102.535 0 0-23.77 1.03-28.677-7.278l2.504 21.962c14.53 1.107 32.21 1.613 53.004 1l1.741-28.342s.063-1.013-.757-2.465"/>
            <path fill="#FFF" d="M.528 22.967C.32 24.57.64 27.256 3.907 30.082c5.172 4.48 40.196 12.625 103.287 10.787 1.369.019 2.807.032 4.283.045.382 1.054.83 2.084 1.444 3.063.27.433.9.174.942-.244.104-.948.3-1.88.547-2.8 7.324.034 15.794-.01 25.21-.114.686 4.325 1.21 8.668 1.92 12.988.083.508.8.61 1.002.106 1.719-4.302 2.897-8.742 4.084-13.18 14.84-.197 31.726-.526 49.979-.928.228 1.081.52 2.145 1.06 3.157.169.316.708.264.879-.014.635-1.022 1.129-2.143 1.687-3.225 88.287-1.97 206.999-5.564 282.463-4.814.432 1.34 1.094 2.594 2.096 3.706.206.232.655.132.797-.103.67-1.109 1.042-2.35 1.488-3.554 6.01.076 11.73.18 17.105.318 6.036.151 11.895.33 17.595.526 1.702 10.713 1.653 21.632 1.843 32.45.01.497.935.626 1.004.104 1.436-10.795 3.795-21.479 5.383-32.253 15.337.592 29.399 1.328 42.313 2.16.323 4.175.06 8.384.889 12.523.075.375.77.45.933.096 1.841-3.976 3.139-8.125 4.723-12.183 22.478 1.55 41.219 3.385 56.704 5.242-.033.682-.002 1.362.172 2.055.095.38.74.441.932.094.359-.653.766-1.271 1.205-1.869 21.102 2.586 35.948 5.19 45.794 7.101 24.013 4.66 20.092 12.919 20.092 12.919-3.573 15.22-5.458 26.427-5.656 33.62H6.549C3.28 52.147 0 25.127 0 25.127c.098-.732.292-1.448.528-2.16z"/>
        </g>
    </g>
</svg>
