<svg xmlns="http://www.w3.org/2000/svg" width="711" height="80" viewBox="0 0 711 80">
    <defs>
        <filter id="prefix__a" width="108.8%" height="115.3%" x="-4.4%" y="-7.7%" filterUnits="objectBoundingBox">
            <feOffset dy="8" in="SourceAlpha" result="shadowOffsetOuter1"/>
            <feGaussianBlur in="shadowOffsetOuter1" result="shadowBlurOuter1" stdDeviation="4"/>
            <feColorMatrix in="shadowBlurOuter1" result="shadowMatrixOuter1" values="0 0 0 0 0.137254902 0 0 0 0 0.141176471 0 0 0 0 0.141176471 0 0 0 0.2 0"/>
            <feMerge>
                <feMergeNode in="shadowMatrixOuter1"/>
                <feMergeNode in="SourceGraphic"/>
            </feMerge>
        </filter>
    </defs>
    <g fill="#FFEDC1" fill-rule="evenodd" filter="url(#prefix__a)" transform="translate(3 -340)">
        <path d="M697.928 340c-.101 6.217.24 13.08.08 20-.168 7.27.448 19.27 1.849 36-6.213.502-108.54 8.388-120.783 7.463-.93-5.926-1.945-11.84-2.968-17.753-.083-.487-.791-.572-1.002-.101-2.462 5.515-3.038 11.475-4.785 17.145-30.313-2.582-74.089-7.416-125.733-10.327-.885-2.542-1.739-5.093-2.916-7.554-.195-.41-.8-.396-.979.013-1.03 2.33-1.326 4.808-1.944 7.222-14.236-.754-29.033-1.354-44.295-1.714-35.37-.83-66.758-.412-96.472.755-.883-2.304-1.89-4.57-2.937-6.828-.202-.439-1.006-.386-.997.128l.133 6.851c-1.807.075-3.61.15-5.403.231-1.871-5.228-3.117-10.691-6.669-15.342-.295-.389-.892-.177-.944.232-.474 3.733-.378 7.502-.453 11.25-.03 1.376-.033 2.81-.114 4.246-42.922 2.121-83.196 5.654-128.15 9.02-.639-1.82-1.388-3.607-2.326-5.345-.183-.344-.847-.231-.926.114-.434 1.862-.65 3.751-1.3 5.57-6.713.496-13.522.988-20.476 1.472-32.81 2.273-57.41 1.192-75.535-1.173-.83-2.76-1.582-5.537-2.724-8.223-.167-.386-.854-.418-.979.015-.704 2.4-.436 5.102-1.133 7.525C17.24 396.352 7 388.44 7 388.44c-1.169-4.848-2.012-13.015-.548-32.44.368-4.89-.143-10.291.335-16z"/>
    </g>
</svg>
