<svg xmlns="http://www.w3.org/2000/svg" width="48" height="48" viewBox="0 0 48 48">
    <g fill="none" fill-rule="evenodd">
        <circle cx="24" cy="24" r="23" stroke="#FFF" stroke-width="2"/>
        <path fill="#FFF" fill-rule="nonzero" d="M37 16.368c-.92.402-1.908.672-2.946.794 1.06-.624 1.873-1.614 2.255-2.793-.99.578-2.088.999-3.257 1.226-.934-.982-2.269-1.595-3.744-1.595-3.311 0-5.744 3.041-4.997 6.199-4.261-.21-8.04-2.22-10.57-5.275-1.344 2.27-.697 5.238 1.586 6.741-.84-.027-1.631-.253-2.322-.632-.056 2.34 1.647 4.528 4.114 5.015-.722.193-1.513.238-2.317.086.652 2.006 2.546 3.465 4.792 3.506-2.157 1.664-4.873 2.408-7.594 2.092C14.27 33.164 16.967 34 19.863 34c9.522 0 14.903-7.917 14.578-15.018 1.002-.713 1.871-1.602 2.559-2.614z"/>
    </g>
</svg>
