<svg xmlns="http://www.w3.org/2000/svg" width="768" height="37" viewBox="0 0 768 37">
    <path fill="#BBF3F9" fill-rule="evenodd" d="M-318 18.076c11.64 10.934 29.489 17.932 49.5 17.932H-318zM-208 2.626c8.18 19.361 32.174 33.382 60.501 33.382h-121c28.327 0 52.321-14.02 60.499-33.382zM-86 .007c7.05 20.703 31.911 36 61.5 36h-123c29.592 0 54.456-15.3 61.498-36.007l-.003.007zM36 2.626c8.18 19.361 32.174 33.382 60.501 33.382h-121c28.327 0 52.321-14.02 60.499-33.382zM158 .007c7.05 20.703 31.911 36 61.5 36h-123c29.592 0 54.456-15.3 61.498-36.007l-.003.007zM280 2.626c8.18 19.361 32.174 33.382 60.501 33.382h-121c28.327 0 52.321-14.02 60.499-33.382zM402 .007c7.05 20.703 31.911 36 61.5 36h-123c29.592 0 54.456-15.3 61.498-36.007l-.003.007zM524 2.626c8.18 19.361 32.174 33.382 60.501 33.382h-121c28.327 0 52.321-14.02 60.499-33.382zM646 .007c7.05 20.703 31.911 36 61.5 36h-123c29.592 0 54.456-15.3 61.498-36.007l-.003.007zM768 2.626c8.18 19.361 32.174 33.382 60.501 33.382h-121c28.327 0 52.321-14.02 60.499-33.382zM890 .007c7.05 20.703 31.911 36 61.5 36h-123c29.592 0 54.456-15.3 61.498-36.007l-.003.007zM1012 2.626c8.18 19.361 32.174 33.382 60.501 33.382h-121c28.327 0 52.321-14.02 60.499-33.382zM1122 18.076L1122 36.007h-49.5c20.012 0 37.862-6.998 49.5-17.933z"/>
</svg>
