<svg xmlns="http://www.w3.org/2000/svg" width="768" height="37" viewBox="0 0 768 37">
    <path fill="#05C1CC" fill-rule="evenodd" d="M-378 18.076c11.64 10.934 29.489 17.932 49.5 17.932H-378zM-268 2.626c8.18 19.361 32.174 33.382 60.501 33.382h-121c28.327 0 52.321-14.02 60.499-33.382zM-146 .007c7.05 20.703 31.911 36 61.5 36h-123c29.592 0 54.456-15.3 61.498-36.007l-.003.007zM-24 2.626c8.18 19.361 32.174 33.382 60.501 33.382h-121c28.327 0 52.321-14.02 60.499-33.382zM98 .007c7.05 20.703 31.911 36 61.5 36h-123c29.592 0 54.456-15.3 61.498-36.007l-.003.007zM220 2.626c8.18 19.361 32.174 33.382 60.501 33.382h-121c28.327 0 52.321-14.02 60.499-33.382zM342 .007c7.05 20.703 31.911 36 61.5 36h-123c29.592 0 54.456-15.3 61.498-36.007l-.003.007zM464 2.626c8.18 19.361 32.174 33.382 60.501 33.382h-121c28.327 0 52.321-14.02 60.499-33.382zM586 .007c7.05 20.703 31.911 36 61.5 36h-123c29.592 0 54.456-15.3 61.498-36.007l-.003.007zM708 2.626c8.18 19.361 32.174 33.382 60.501 33.382h-121c28.327 0 52.321-14.02 60.499-33.382zM830 .007c7.05 20.703 31.911 36 61.5 36h-123c29.592 0 54.456-15.3 61.498-36.007l-.003.007zM952 2.626c8.18 19.361 32.174 33.382 60.501 33.382h-121c28.327 0 52.321-14.02 60.499-33.382zM1074 .007c6.03 17.71 25.093 31.463 49 35.07v.93h-110.5c29.592 0 54.456-15.3 61.498-36.007l-.003.007z"/>
</svg>
